<?xml version="1.0" standalone="no"?>
<!DOCTYPE svg PUBLIC "-//W3C//DTD SVG 20010904//EN"
 "http://www.w3.org/TR/2001/REC-SVG-20010904/DTD/svg10.dtd">
<svg version="1.0" xmlns="http://www.w3.org/2000/svg"
 width="2000.000000pt" height="2000.000000pt" viewBox="0 0 2000.000000 2000.000000"
 preserveAspectRatio="xMidYMid meet">
<defs>
  <clipPath id="circle-clip">
    <circle cx="1000" cy="1000" r="1000" />
  </clipPath>
</defs>

<g clip-path="url(#circle-clip)">
<g transform="translate(0.000000,2000.000000) scale(0.100000,-0.100000)"
fill="#ffffff" stroke="none">
<path d="M0 10000 l0 -10000 10000 0 10000 0 0 10000 0 10000 -10000 0 -10000
0 0 -10000z m8470 7636 c-8 -8 -44 -29 -80 -47 -207 -106 -417 -266 -548 -419
-219 -256 -358 -716 -322 -1064 20 -199 64 -337 181 -566 38 -75 69 -139 69
-143 0 -17 -23 -3 -80 50 -146 135 -244 331 -285 568 -19 114 -19 331 0 455
30 199 103 399 194 533 188 279 445 482 786 618 80 32 108 37 85 15z m-1696
-411 c-35 -129 -43 -173 -53 -326 -23 -321 38 -604 191 -884 93 -170 152 -250
283 -381 154 -154 295 -249 568 -383 235 -114 341 -156 527 -205 207 -55 315
-68 550 -68 277 -1 601 38 639 76 11 12 9 17 -16 29 -16 9 -83 30 -149 47
-170 45 -316 96 -404 140 -136 69 -377 235 -463 321 -43 44 -77 82 -74 85 6 7
71 -26 140 -70 93 -60 220 -103 474 -160 307 -70 480 -90 983 -111 360 -16
367 -17 540 -55 558 -124 672 -140 1650 -226 96 -8 209 -19 250 -25 132 -17
383 -39 442 -39 87 0 103 -12 127 -89 65 -214 143 -540 161 -671 16 -116 17
-367 1 -465 -28 -174 -113 -379 -223 -536 -28 -41 -99 -122 -158 -180 -87 -87
-121 -113 -181 -142 -103 -48 -158 -59 -291 -55 l-114 3 -75 -51 c-400 -273
-868 -453 -1120 -430 -38 3 -113 23 -180 47 -63 22 -159 53 -213 67 -167 45
-146 51 216 54 l323 3 129 44 c143 49 671 310 671 331 0 17 -59 38 -108 39
-22 1 -87 -18 -156 -43 -134 -50 -189 -68 -316 -102 -193 -51 -722 -55 -1040
-8 -89 14 -119 15 -155 5 -70 -18 -313 -167 -619 -380 -70 -48 -107 -64 -99
-42 4 13 382 377 443 427 78 65 173 122 230 140 47 15 78 16 276 7 357 -17
669 9 947 77 184 45 196 56 105 90 -54 21 -67 22 -198 14 -77 -5 -210 -9 -295
-8 -181 1 -339 26 -794 126 l-278 61 -112 -28 c-177 -45 -328 -92 -500 -157
-253 -95 -258 -96 -324 -114 -63 -18 -94 -11 -77 16 7 12 563 288 795 395 69
32 143 60 165 62 24 3 169 -18 355 -51 405 -72 504 -86 620 -86 80 0 92 2 80
14 -8 7 -145 80 -305 161 -159 81 -294 151 -300 155 -5 4 -109 58 -230 120
-121 62 -285 147 -365 190 -303 162 -552 292 -760 395 -186 93 -412 211 -609
317 -31 17 -119 69 -196 116 -77 47 -223 135 -325 197 -461 279 -598 387 -811
645 -143 173 -264 450 -314 719 -21 114 -21 460 1 551 8 36 23 101 33 145 17
80 64 208 84 233 24 29 24 -8 1 -93z m3871 30 c392 -40 576 -72 885 -155 397
-106 727 -233 1105 -422 225 -113 348 -184 580 -337 155 -101 548 -406 680
-526 284 -260 595 -592 767 -820 69 -92 178 -251 178 -260 0 -3 20 -36 45 -74
67 -104 59 -116 -33 -52 -241 165 -614 344 -888 425 -122 36 -404 104 -526
126 -67 12 -69 13 -265 177 -321 268 -402 324 -758 520 -460 254 -813 379
-1440 509 -181 38 -315 52 -593 65 -391 18 -785 -6 -1137 -71 -478 -88 -961
-253 -1261 -431 -113 -67 -134 -77 -134 -61 0 4 -5 68 -10 143 -17 219 7 384
92 649 53 165 87 208 211 265 145 67 246 96 752 215 244 57 487 95 775 120 69
5 145 12 170 14 96 8 672 -5 805 -19z m-4113 -1512 c88 -183 159 -284 300
-427 54 -55 98 -101 98 -103 0 -2 -74 -77 -164 -166 -201 -200 -362 -383 -519
-592 -264 -351 -440 -656 -606 -1047 -75 -177 -121 -307 -185 -528 -20 -69
-43 -145 -51 -170 -35 -116 -102 -493 -127 -720 -8 -76 -12 -874 -15 -2905 -3
-2629 -5 -2800 -21 -2818 -9 -11 -57 -50 -107 -88 -49 -37 -122 -94 -161 -126
-40 -32 -139 -112 -220 -178 -82 -66 -186 -157 -232 -203 -46 -46 -85 -82 -88
-80 -2 3 -5 1424 -6 3159 -2 2475 0 3183 10 3290 15 161 62 476 97 648 53 260
181 676 287 936 28 66 61 149 76 185 73 185 344 679 505 920 107 162 329 444
507 645 122 137 515 525 532 525 8 0 48 -71 90 -157z m6818 -853 c19 -5 78
-20 130 -33 493 -128 776 -248 1257 -533 77 -47 144 -91 147 -99 3 -8 -13 -81
-35 -162 -21 -82 -51 -191 -65 -243 -119 -442 -302 -823 -486 -1013 -162 -165
-460 -356 -685 -437 -35 -13 -63 -25 -63 -28 0 -2 9 -19 20 -37 24 -39 18 -46
-61 -74 -196 -67 -371 -151 -570 -272 -123 -75 -149 -113 -252 -364 -60 -148
-74 -190 -98 -303 -35 -161 -41 -146 -35 93 5 228 26 413 67 593 27 118 29
121 269 274 122 78 274 156 357 182 78 26 81 35 31 96 -24 29 -59 61 -79 72
-30 17 -41 18 -77 9 -42 -12 -199 -112 -447 -286 -218 -153 -239 -172 -289
-279 -88 -185 -162 -437 -180 -616 -6 -65 -15 -114 -21 -113 -21 4 -28 85 -29
313 0 218 2 244 27 364 15 72 27 147 27 168 0 27 8 46 29 70 15 18 40 56 54
85 45 88 262 272 654 556 145 105 299 337 389 587 13 38 38 124 55 191 28 114
30 137 30 299 0 110 -6 207 -15 260 -36 204 -48 262 -77 375 -42 161 -68 276
-69 298 0 19 33 22 90 7z m-5436 -399 c77 -39 224 -105 326 -149 297 -127 400
-174 400 -183 0 -4 -30 -25 -67 -45 -476 -264 -915 -751 -1147 -1275 -135
-302 -208 -544 -259 -854 -21 -129 -21 -142 -27 -2295 l-5 -2165 -135 -70
c-150 -79 -482 -275 -605 -359 l-80 -54 -9 2246 c-10 2445 -7 2630 38 2892 54
313 122 562 209 775 65 158 83 196 165 357 133 261 312 530 491 738 224 261
488 510 540 510 13 0 87 -31 165 -69z m7233 -563 c11 -13 57 -81 103 -153 46
-71 97 -152 115 -180 49 -75 204 -357 299 -545 131 -256 285 -637 286 -703 0
-43 -445 -456 -689 -639 -106 -80 -260 -156 -341 -170 -36 -5 -227 -11 -425
-12 -258 -2 -366 -6 -382 -15 -30 -16 -30 -54 2 -122 28 -62 52 -93 79 -103
11 -4 146 -7 300 -7 283 1 489 12 581 32 164 37 549 300 814 558 52 50 100 90
105 88 16 -5 8 -188 -15 -397 -29 -254 -84 -563 -144 -800 -38 -153 -143 -471
-163 -498 -26 -34 -118 -45 -392 -45 -261 0 -320 9 -499 78 -236 92 -507 233
-528 276 -6 13 -16 83 -22 154 -25 293 -43 385 -83 422 -19 17 -46 22 -163 32
-143 13 -219 23 -314 42 -29 5 -59 8 -65 6 -21 -8 -148 -206 -178 -279 -45
-106 -61 -197 -53 -303 6 -82 6 -89 -9 -75 -26 25 -97 243 -103 318 -8 95 16
171 97 307 9 17 31 55 47 85 80 147 74 143 243 171 63 10 133 23 155 29 22 5
89 10 148 10 130 0 135 5 84 88 -19 31 -46 81 -61 109 -44 88 -48 89 -226 53
-83 -16 -156 -32 -160 -35 -4 -3 -60 -14 -123 -24 -64 -11 -129 -27 -146 -35
-45 -24 -167 -170 -217 -262 -44 -82 -83 -182 -123 -321 -12 -40 -25 -73 -30
-73 -13 0 -22 149 -15 261 9 143 35 265 84 389 73 183 105 219 230 253 30 8
111 31 180 52 69 20 141 41 161 46 69 17 178 61 183 74 3 8 -8 29 -25 47 -16
18 -28 40 -26 48 1 8 36 27 77 42 342 129 600 296 758 492 166 206 298 466
428 847 36 107 79 232 95 278 16 46 29 95 29 108 0 29 11 29 37 1z m-4837
-1842 c398 -58 709 -216 1006 -511 201 -200 360 -481 437 -776 55 -206 52 -69
49 -2664 -2 -1325 -6 -2449 -10 -2497 l-7 -88 -275 -2 -275 -3 -6 375 c-4 206
-10 1322 -13 2480 -7 2280 -5 2200 -61 2367 -94 279 -302 521 -560 651 -79 39
-223 90 -308 108 -81 17 -341 19 -437 3 -89 -14 -259 -72 -354 -120 -320 -163
-551 -501 -601 -879 -16 -115 -23 -1053 -29 -3628 -1 -743 -5 -1354 -7 -1357
-8 -7 -550 -7 -557 0 -12 11 -14 4794 -3 4940 48 619 419 1174 966 1447 144
72 366 139 520 156 125 14 419 13 525 -2z m3951 -1802 c38 -46 253 -167 419
-237 195 -82 316 -101 618 -99 169 1 232 -1 232 -10 0 -16 -182 -366 -227
-436 -143 -224 -232 -349 -354 -493 -94 -114 -265 -289 -280 -289 -15 0 -192
126 -365 259 -62 47 -164 126 -227 175 -64 49 -118 95 -121 103 -3 8 10 62 28
121 19 59 78 285 132 502 53 217 98 401 100 408 5 17 29 15 45 -4z m-4388
-296 c-2 -134 -6 -252 -8 -263 -2 -11 -27 -34 -54 -50 -56 -34 -341 -252 -411
-314 -25 -23 -48 -41 -51 -41 -11 0 -15 49 -18 283 l-3 227 69 68 c83 82 455
348 472 337 4 -2 6 -113 4 -247z m558 117 c221 -155 329 -243 345 -282 11 -24
14 -91 14 -268 0 -129 -3 -235 -6 -235 -4 0 -35 26 -69 59 -66 61 -357 277
-412 305 -18 9 -37 24 -42 34 -15 27 -19 502 -5 502 6 0 85 -52 175 -115z
m5418 -2365 c0 -1155 3 -2105 6 -2111 4 -5 4 -17 1 -26 -5 -12 -29 6 -104 78
-108 105 -295 261 -507 421 -77 59 -157 121 -178 140 l-38 33 -4 1102 c-2 606
-6 1107 -10 1113 -16 26 9 83 68 156 34 42 79 97 100 123 57 69 178 230 213
281 17 25 65 95 107 156 68 98 148 247 262 489 34 71 76 145 82 145 2 0 3
-945 2 -2100z m-5974 782 c-7 -62 -8 -65 -52 -95 -88 -61 -168 -122 -206 -157
-72 -66 -67 -90 -67 309 l0 360 38 30 c20 17 93 73 162 124 l125 92 3 -300 c2
-165 0 -328 -3 -363z m446 620 c31 -20 102 -70 157 -109 l100 -73 6 -62 c11
-114 12 -658 1 -658 -5 0 -53 31 -105 68 -52 37 -123 85 -157 105 -34 21 -65
48 -70 60 -4 12 -6 175 -5 361 1 187 2 341 2 343 0 9 21 -1 71 -35z m3550
-188 c24 -16 103 -71 174 -123 149 -108 304 -218 388 -275 31 -22 57 -43 57
-48 0 -11 -152 -242 -239 -363 -70 -98 -229 -299 -283 -356 -18 -20 -80 -89
-138 -153 -95 -107 -302 -304 -405 -386 -88 -70 -186 -140 -239 -170 -54 -31
-56 -31 -56 -10 0 23 135 300 169 349 12 16 21 32 21 35 0 3 31 61 68 129 69
122 75 135 138 258 38 77 51 119 36 119 -6 0 -17 -9 -25 -20 -8 -11 -32 -40
-53 -63 -22 -23 -55 -62 -75 -87 -201 -249 -504 -549 -664 -658 -108 -73 -145
-84 -287 -90 -161 -6 -218 2 -218 29 0 47 110 226 207 334 29 33 53 63 53 67
0 3 -30 9 -67 12 -171 15 -432 62 -451 80 -13 13 28 62 182 218 330 335 794
715 1141 934 104 66 236 147 355 218 109 65 137 68 211 20z m-3986 -2213 l0
-1192 -160 0 -160 -1 -6 633 c-9 938 -11 1518 -4 1528 3 6 25 23 48 39 23 16
93 65 156 110 62 45 116 80 120 78 3 -2 6 -540 6 -1195z m410 1180 c17 -11 88
-62 160 -113 l130 -95 0 -1077 c0 -593 -3 -1082 -6 -1087 -3 -6 -74 -8 -165
-7 l-159 3 0 1197 c0 659 2 1198 5 1198 3 0 19 -9 35 -19z m4091 -1301 c12 0
14 -32 14 -188 l0 -188 43 -62 c126 -184 175 -247 321 -416 67 -77 170 -196
230 -265 292 -339 823 -881 1080 -1105 77 -66 189 -165 250 -220 61 -54 131
-115 156 -135 25 -19 97 -79 160 -131 63 -53 169 -136 235 -186 66 -49 167
-127 225 -174 80 -64 138 -99 245 -151 77 -37 163 -76 190 -87 90 -35 288
-123 368 -163 43 -21 83 -39 90 -39 6 0 25 -11 41 -23 42 -34 17 -63 -32 -38
-9 5 -48 18 -87 30 -38 12 -137 43 -220 70 -189 62 -259 82 -415 121 -217 53
-323 81 -385 101 -33 10 -123 32 -200 50 -77 17 -203 47 -280 66 -359 88 -458
112 -570 136 -209 46 -563 115 -750 147 -99 16 -216 37 -260 45 -44 9 -179 31
-300 50 -121 19 -247 40 -280 46 -218 40 -802 119 -1025 139 -69 6 -201 19
-295 30 -392 44 -649 62 -1300 92 -418 19 -617 22 -1350 23 -1166 0 -1776 -22
-2605 -95 -465 -41 -1351 -148 -1810 -220 -30 -5 -84 -13 -120 -19 -59 -9
-219 -37 -525 -91 -288 -51 -392 -71 -502 -94 -197 -42 -631 -140 -823 -186
-69 -16 -183 -41 -254 -55 -71 -14 -150 -32 -175 -40 -25 -8 -80 -26 -121 -39
-41 -13 -100 -27 -130 -31 -61 -8 -207 -46 -286 -75 -28 -10 -86 -23 -129 -29
-43 -6 -84 -16 -90 -21 -17 -14 -119 -40 -156 -40 -68 0 -12 37 196 131 245
111 434 217 582 329 125 95 562 458 653 544 30 29 109 101 175 161 184 167
659 641 828 825 83 91 155 170 161 175 12 10 179 199 274 309 29 34 103 122
164 196 61 74 144 170 184 212 42 45 75 91 79 107 3 17 20 45 36 63 l29 33 0
175 c-1 96 -1 181 -1 188 1 19 327 17 334 -2 3 -7 6 -104 7 -215 0 -111 3
-207 6 -214 9 -19 223 -192 332 -268 673 -470 1103 -699 1749 -930 442 -158
621 -206 1134 -304 184 -35 328 -45 654 -45 567 0 870 47 1465 223 219 66 535
185 795 302 153 68 454 216 480 235 6 4 64 35 130 70 270 142 735 462 950 654
100 90 100 90 102 140 2 28 6 121 10 206 l8 155 135 5 c74 3 141 4 148 3 8 -2
20 -3 28 -3z m-161 -2976 c72 -14 151 -30 178 -35 l47 -11 0 -274 0 -275 -22
-8 c-13 -5 -107 -10 -211 -10 l-187 -2 -10 25 c-7 19 -15 484 -10 614 0 15 29
12 215 -24z m-7925 -20 c13 -33 12 -376 0 -474 -6 -41 -16 -80 -23 -87 -20
-20 -117 -55 -162 -59 -47 -5 -137 37 -167 76 -53 72 -76 456 -30 502 10 10
293 65 345 67 21 1 30 -5 37 -25z m11808 -576 c-7 -19 -38 -22 -38 -4 0 10 9
16 21 16 12 0 19 -5 17 -12z"/>
<path d="M9649 14935 c-59 -21 -117 -63 -134 -94 -34 -66 -10 -162 60 -240 52
-57 135 -76 226 -51 48 13 116 86 125 134 18 101 -28 180 -138 236 -67 33 -85
35 -139 15z"/>
<path d="M6480 5854 c0 -12 72 -97 160 -188 208 -216 710 -602 1050 -807 181
-109 209 -125 362 -201 248 -123 241 -121 518 -88 91 11 246 23 345 26 202 6
225 9 225 28 0 14 -19 20 -210 65 -300 71 -621 181 -1050 360 -187 79 -449
210 -599 300 -264 158 -504 313 -656 421 -84 60 -145 95 -145 84z"/>
<path d="M13689 5755 c-68 -47 -131 -89 -139 -93 -8 -4 -49 -30 -92 -57 -352
-230 -678 -411 -913 -508 -33 -14 -113 -48 -178 -76 -127 -55 -125 -54 -422
-161 -255 -92 -409 -141 -613 -195 -90 -23 -166 -46 -169 -49 -15 -14 17 -26
73 -27 79 -2 440 -18 643 -29 188 -10 174 -13 371 83 260 127 741 445 1012
669 390 321 568 482 568 511 0 10 -4 17 -8 17 -5 0 -65 -38 -133 -85z"/>
<path d="M6350 5803 c0 -9 6 -18 91 -145 31 -45 99 -148 152 -228 53 -80 119
-176 146 -215 28 -38 71 -99 96 -135 55 -79 120 -170 200 -281 32 -46 111
-140 175 -209 90 -96 123 -126 145 -128 16 -2 142 8 280 22 349 37 370 40 370
51 0 6 -57 40 -127 77 -384 200 -1002 660 -1248 929 -197 215 -280 293 -280
262z"/>
<path d="M14004 5678 c-73 -148 -85 -168 -200 -341 -112 -170 -151 -226 -249
-352 -46 -60 -110 -144 -142 -185 -31 -41 -117 -135 -190 -209 -73 -74 -130
-138 -127 -142 2 -5 19 -11 37 -13 18 -3 172 -28 342 -56 482 -78 494 -80 535
-80 l38 0 6 163 c3 89 10 385 16 657 6 272 13 539 17 593 4 70 3 97 -5 97 -7
0 -42 -60 -78 -132z"/>
<path d="M13895 5733 c-22 -22 -74 -75 -115 -119 -192 -202 -573 -515 -837
-687 -205 -134 -304 -194 -521 -314 -56 -31 -101 -61 -99 -67 5 -16 50 -23
302 -46 127 -12 253 -24 280 -27 l51 -5 138 143 c201 208 476 559 657 839 20
30 62 95 95 143 90 135 96 145 92 163 -2 13 -12 8 -43 -23z"/>
<path d="M6249 5734 c-3 -20 2 -579 7 -1001 7 -436 8 -453 26 -453 10 0 51 7
91 14 234 47 423 81 600 107 111 16 205 33 211 39 11 11 3 20 -101 130 -149
158 -273 326 -576 780 -79 118 -160 244 -181 280 -43 73 -75 117 -77 104z"/>
<path d="M5892 5668 c-11 -29 -32 -91 -47 -138 -52 -161 -268 -701 -345 -865
-29 -60 -68 -148 -87 -195 -20 -47 -66 -149 -104 -228 -38 -79 -69 -148 -69
-153 0 -15 28 -11 206 30 93 21 229 51 301 66 l133 28 4 31 c7 44 15 314 26
861 5 259 13 503 16 543 8 87 -6 96 -34 20z"/>
<path d="M5744 5645 c-17 -28 -58 -97 -89 -155 -66 -119 -194 -316 -282 -435
-32 -44 -122 -168 -198 -275 -181 -253 -485 -635 -640 -805 -47 -51 -69 -84
-62 -92 4 -3 57 8 119 25 62 17 194 52 293 77 99 26 189 52 200 60 11 7 25 30
32 52 10 34 46 113 215 473 16 36 38 86 49 112 10 25 47 111 82 190 97 214
167 375 167 382 0 3 9 25 19 49 63 137 133 340 129 370 -2 18 -8 13 -34 -28z"/>
<path d="M5610 5667 c-16 -13 -70 -72 -166 -182 -33 -39 -130 -149 -214 -245
-264 -301 -857 -881 -1215 -1187 -222 -190 -306 -264 -371 -326 -34 -31 -77
-70 -97 -85 -38 -29 -49 -49 -19 -37 30 13 193 55 213 55 32 0 471 150 516
177 42 24 287 304 391 445 23 31 46 59 52 63 6 3 36 41 67 83 31 42 81 108
111 145 54 66 78 99 197 272 99 145 163 235 193 273 116 148 326 467 351 535
12 31 12 31 -9 14z"/>
<path d="M14561 5671 c-3 -48 147 -432 294 -756 43 -93 89 -201 102 -240 44
-125 115 -299 146 -360 18 -33 50 -105 72 -160 31 -76 47 -103 67 -112 84 -41
624 -171 641 -154 5 5 -19 33 -53 62 -82 72 -254 280 -590 714 -80 103 -174
224 -210 269 -83 103 -237 336 -325 491 -37 66 -79 140 -94 165 -14 25 -31 56
-38 70 -6 14 -12 18 -12 11z"/>
<path d="M14394 5638 c7 -35 13 -306 21 -988 4 -361 7 -417 21 -427 8 -6 45
-16 82 -23 71 -12 345 -76 475 -111 43 -11 81 -18 85 -15 11 12 -42 142 -124
306 -46 91 -103 215 -128 275 -24 61 -81 196 -126 300 -80 183 -142 334 -200
480 -15 39 -34 86 -42 105 -8 19 -23 56 -32 83 -20 54 -42 64 -32 15z"/>
<path d="M14710 5651 c0 -31 163 -302 302 -504 57 -83 212 -292 255 -343 23
-27 53 -67 68 -89 14 -22 57 -78 95 -125 38 -47 124 -152 190 -235 343 -426
403 -490 503 -539 40 -19 155 -58 257 -86 102 -28 245 -74 318 -102 183 -69
197 -47 44 71 -42 33 -134 108 -204 168 -69 59 -193 165 -275 234 -81 69 -168
145 -193 168 -25 24 -103 95 -175 159 -251 224 -468 433 -631 609 -65 70 -153
164 -195 208 -41 44 -111 123 -155 175 -141 169 -204 240 -204 231z"/>
</g>
</g>
</svg>
