<?xml version="1.0" standalone="no"?>
<!DOCTYPE svg PUBLIC "-//W3C//DTD SVG 20010904//EN"
 "http://www.w3.org/TR/2001/REC-SVG-20010904/DTD/svg10.dtd">
<svg version="1.0" xmlns="http://www.w3.org/2000/svg"
 width="1024.000000pt" height="1024.000000pt" viewBox="0 0 1024.000000 1024.000000"
 preserveAspectRatio="xMidYMid meet">

<g transform="translate(0.000000,1024.000000) scale(0.100000,-0.100000)"
fill="#000000" stroke="none">
<path d="M0 5120 l0 -5120 5120 0 5120 0 0 5120 0 5120 -5120 0 -5120 0 0
-5120z m4726 2028 c-59 -39 -101 -95 -121 -161 -21 -71 -18 -123 10 -191 l24
-58 -24 22 c-46 43 -61 142 -35 233 15 56 84 138 139 167 56 30 60 23 7 -12z
m575 -53 c300 -52 594 -246 753 -497 16 -25 14 -24 -71 18 -48 25 -119 52
-158 61 -53 13 -83 27 -124 60 -116 94 -275 166 -427 193 -92 16 -316 8 -404
-15 -36 -10 -97 -32 -137 -50 l-72 -33 -6 27 c-6 28 6 95 25 145 6 16 24 33
44 41 33 14 180 49 241 58 72 10 259 6 336 -8z m-866 -77 c0 -64 5 -94 22
-130 67 -147 266 -250 447 -233 42 4 76 11 76 16 0 5 -7 9 -15 9 -33 0 -125
43 -161 76 -39 35 -39 35 -7 19 50 -24 148 -43 258 -50 55 -4 147 -15 205 -25
58 -11 166 -24 240 -30 191 -16 175 -8 195 -92 36 -144 16 -239 -66 -312 -29
-27 -48 -36 -74 -36 -21 0 -53 -12 -82 -30 -26 -17 -78 -40 -115 -51 -66 -20
-68 -20 -120 -2 l-53 18 80 6 c65 4 93 12 145 39 71 37 61 56 -13 24 -32 -14
-70 -18 -167 -18 -132 -1 -126 1 -226 -62 -25 -15 -24 -12 11 25 57 61 82 71
173 71 87 0 194 18 186 31 -3 5 -35 8 -72 7 -37 -1 -110 7 -162 16 l-95 19
-89 -32 c-49 -17 -92 -29 -94 -26 -3 2 38 25 90 50 l95 46 83 -15 c155 -30
146 -21 -130 122 -326 169 -431 233 -492 294 -75 77 -106 188 -84 301 4 20 8
37 9 37 1 0 2 -37 2 -82z m-41 -211 c3 -12 22 -42 42 -65 l36 -42 -60 -64
c-115 -123 -196 -271 -245 -444 -20 -74 -21 -101 -25 -677 l-4 -600 -78 -62
-77 -61 -7 601 c-8 647 -5 719 40 877 29 103 117 285 177 366 58 79 166 194
182 194 7 0 15 -10 19 -23z m1446 -197 c71 -23 194 -82 218 -105 7 -6 -32
-131 -58 -190 -36 -81 -68 -116 -139 -154 -34 -18 -61 -36 -61 -41 0 -4 -18
-15 -40 -24 -88 -35 -117 -62 -141 -126 -12 -33 -24 -59 -26 -56 -2 2 1 39 6
81 12 85 14 87 98 132 39 21 49 31 41 40 -18 22 -41 14 -108 -36 -57 -42 -68
-55 -83 -101 -9 -29 -17 -64 -17 -79 0 -21 -2 -23 -10 -11 -13 18 -3 122 15
166 8 19 45 56 94 94 62 48 86 74 106 115 34 70 41 143 21 228 -16 68 -20 97
-12 97 2 0 45 -13 96 -30z m-1111 -80 c44 -19 81 -37 81 -40 0 -3 -20 -18 -45
-33 -95 -60 -177 -176 -220 -310 -25 -77 -25 -82 -25 -435 0 -196 -3 -400 -6
-452 l-7 -95 -69 -40 c-39 -22 -74 -41 -79 -43 -5 -2 -9 198 -9 487 0 534 3
568 58 700 16 37 46 93 67 125 46 69 149 180 163 175 5 -2 46 -20 91 -39z
m1453 -200 c32 -58 65 -127 74 -154 l17 -50 -66 -62 c-92 -88 -114 -97 -222
-98 -84 -1 -91 0 -100 22 -11 25 -23 26 -94 11 -55 -12 -79 -36 -107 -106
l-14 -38 4 56 c7 89 25 115 99 138 39 12 61 24 60 32 -2 8 17 22 42 32 98 41
172 139 216 285 7 23 17 41 23 39 6 -2 36 -50 68 -107z m-928 -289 c67 -33
123 -87 156 -151 43 -84 46 -162 33 -788 l-6 -332 -53 0 -53 0 -3 518 -3 519
-30 49 c-98 157 -319 147 -408 -20 -22 -40 -22 -50 -25 -553 l-3 -513 -55 0
-55 0 3 533 3 532 24 45 c35 66 67 104 112 136 107 74 245 83 363 25z m1012
-144 c-9 -46 -23 -106 -31 -134 -15 -51 -15 -51 -65 -58 -61 -8 -98 -1 -176
36 l-62 29 -4 56 c-6 65 -15 74 -81 74 -43 0 -49 -3 -67 -32 -11 -18 -20 -46
-20 -63 0 -23 -3 -27 -10 -15 -17 27 -11 86 13 121 19 28 31 35 76 43 53 9 62
6 74 -29 2 -6 42 -9 98 -7 85 2 98 5 146 34 30 18 68 48 86 66 l32 33 3 -35
c2 -20 -4 -73 -12 -119z m-139 -247 l65 0 -32 -57 c-40 -71 -117 -173 -136
-180 -17 -6 -143 86 -144 105 0 12 35 159 45 188 2 7 28 -1 70 -22 56 -28 79
-34 132 -34z m-1067 7 c0 -52 -1 -54 -50 -90 -27 -20 -52 -37 -55 -37 -3 0 -5
22 -5 50 0 48 2 50 53 89 28 23 53 41 55 41 1 0 2 -24 2 -53z m132 10 c40 -31
43 -37 46 -85 l3 -53 -50 36 c-46 33 -49 39 -53 85 -1 28 0 50 4 50 3 0 26
-15 50 -33z m1058 -462 l0 -415 -80 63 -80 62 0 237 c0 151 4 239 10 243 20
12 89 113 117 169 15 31 28 56 30 56 2 0 3 -187 3 -415z m-1190 217 c0 -64 -2
-70 -30 -90 l-30 -23 0 72 c0 61 3 73 23 90 12 10 25 18 30 19 4 0 7 -31 7
-68z m118 49 c19 -17 22 -29 22 -91 l0 -71 -33 25 c-25 19 -32 32 -31 53 1 15
3 45 3 66 1 42 6 44 39 18z m731 -55 c35 -25 65 -47 68 -50 20 -19 -221 -286
-258 -286 -6 0 11 39 37 88 l47 87 -80 -82 c-79 -82 -112 -103 -159 -103 -29
0 -31 19 -4 53 11 14 20 27 20 30 0 3 -22 8 -50 12 l-50 7 21 26 c35 46 150
142 243 203 48 33 91 59 95 59 4 0 35 -20 70 -44z m-849 -406 l0 -240 -30 0
-30 0 0 217 0 217 28 23 c15 12 28 22 30 23 1 0 2 -108 2 -240z m140 -21 l0
-219 -30 0 -30 0 0 241 0 240 30 -21 30 -21 0 -220z m-860 -42 c0 -52 17 -70
135 -147 263 -170 562 -243 807 -196 157 30 348 111 495 209 92 62 113 87 120
136 5 37 8 41 34 41 27 0 29 -3 29 -39 0 -34 9 -52 61 -115 91 -113 292 -313
401 -400 65 -51 131 -92 198 -123 55 -25 99 -48 97 -50 -2 -2 -33 8 -68 21
-96 36 -417 113 -611 146 -234 40 -413 59 -662 69 -671 28 -1272 -48 -1851
-234 -43 -14 18 18 108 56 134 57 317 216 533 462 93 105 104 121 104 155 0
46 5 52 42 52 26 0 28 -2 28 -43z m1616 -557 c10 0 14 -16 14 -60 l0 -60 -39
0 -39 0 -4 66 -3 66 29 -6 c16 -3 35 -6 42 -6z m-1606 -60 l0 -60 -46 0 -45 0
3 53 c3 55 12 65 61 66 27 1 27 0 27 -59z m-608 -410 c20 -6 46 -19 59 -28 21
-18 21 -19 4 -45 l-17 -27 -33 20 c-68 42 -165 13 -165 -49 0 -36 19 -52 105
-90 85 -39 112 -63 126 -114 23 -84 -64 -177 -166 -177 -36 0 -145 41 -145 55
0 3 7 16 15 29 l15 23 47 -23 c64 -33 107 -31 144 5 56 56 28 102 -94 152 -98
40 -120 68 -114 147 4 62 31 95 93 117 47 17 77 18 126 5z m3895 -20 c48 -21
51 -28 25 -59 l-17 -22 -49 22 c-94 41 -199 10 -246 -73 -30 -52 -33 -145 -7
-194 37 -71 121 -112 205 -99 72 11 72 11 72 81 l0 64 -50 0 c-48 0 -50 1 -50
28 l0 27 82 -2 83 -2 0 -108 0 -107 -50 -19 c-72 -28 -175 -27 -243 3 -95 41
-152 149 -139 260 14 115 88 192 212 224 35 9 127 -4 172 -24z m-4858 9 c124
-26 191 -111 191 -242 0 -52 -6 -79 -25 -116 -47 -95 -106 -122 -271 -129
l-121 -4 -6 68 c-9 91 -9 419 0 427 10 11 177 8 232 -4z m639 -21 l-3 -33
-128 -3 -128 -3 3 -72 3 -72 113 -3 113 -3 -3 -27 -3 -27 -112 -3 -113 -3 0
-79 0 -80 130 0 130 0 0 -30 0 -30 -162 2 -163 3 -3 234 c-2 129 -1 240 2 248
4 10 41 13 166 13 l161 0 -3 -32z m839 -212 c57 -132 103 -244 103 -248 0 -5
-16 -8 -36 -6 -34 3 -38 6 -61 66 l-25 62 -114 0 -115 0 -29 -65 c-28 -62 -31
-65 -64 -65 l-35 0 33 78 c18 42 66 155 106 250 l73 173 31 -3 c30 -3 33 -8
133 -242z m463 59 c5 -193 9 -208 61 -239 56 -33 149 -10 181 46 9 16 13 74
13 197 l0 175 35 0 35 1 -3 -175 c-2 -96 -8 -189 -13 -206 -11 -36 -63 -89
-102 -103 -36 -14 -128 -14 -164 0 -40 15 -73 48 -94 94 -16 34 -19 66 -19
216 l0 176 33 -1 32 -1 5 -180z m710 174 c64 -14 127 -61 160 -119 20 -37 25
-59 25 -120 0 -90 -27 -146 -92 -196 -52 -40 -115 -54 -238 -54 l-95 0 0 250
0 250 95 0 c51 0 117 -5 145 -11z m630 -24 l0 -35 -125 0 -125 0 0 -72 0 -73
107 0 108 0 3 -32 3 -33 -110 0 -110 0 -6 -43 c-4 -23 -5 -58 -3 -77 l3 -35
128 -3 127 -3 0 -29 0 -30 -160 0 -160 0 0 250 0 250 160 0 160 0 0 -35z m190
-150 c3 -119 9 -188 18 -202 28 -49 114 -68 172 -38 53 27 60 56 60 243 l0
170 36 4 35 4 -3 -191 c-3 -185 -4 -193 -28 -228 -73 -107 -240 -109 -324 -4
l-31 39 -3 195 -3 194 33 -3 33 -3 5 -180z m670 -8 l140 -188 0 185 0 186 35
0 35 0 0 -245 0 -245 -32 0 c-31 0 -41 11 -168 183 l-135 184 -6 -111 c-4 -61
-7 -144 -8 -183 l-1 -73 -30 0 -30 0 0 248 0 248 30 -1 c26 0 43 -19 170 -188z
m-3625 -527 c17 -14 20 -56 4 -65 -7 -5 -4 -14 7 -26 14 -15 16 -25 8 -47 -8
-22 -18 -28 -57 -36 -74 -13 -77 -10 -77 92 0 49 3 91 6 95 11 10 93 1 109
-13z m189 -65 c51 -118 50 -115 35 -115 -8 0 -22 14 -31 30 -14 24 -24 30 -52
30 -27 0 -39 -7 -56 -30 -39 -54 -39 -31 -2 58 41 97 49 112 61 112 5 0 25
-38 45 -85z m159 9 l56 -76 3 73 c2 43 7 73 13 72 13 -4 19 -173 6 -186 -6 -6
-31 17 -68 62 l-58 72 -3 -65 c-5 -102 -22 -79 -22 29 0 52 4 95 8 95 5 0 34
-34 65 -76z m274 51 c33 -22 44 -56 32 -99 -13 -46 -43 -65 -107 -69 l-52 -3
0 96 0 96 52 -3 c28 -1 62 -10 75 -18z m197 -55 c18 -41 36 -85 40 -97 11 -34
-11 -28 -29 7 -13 26 -21 30 -55 30 -33 0 -42 -5 -57 -30 -9 -16 -21 -30 -25
-30 -11 0 -10 3 11 57 43 108 62 144 72 141 6 -2 25 -37 43 -78z m201 60 c21
-18 19 -66 -4 -82 -19 -14 -19 -15 4 -56 32 -56 8 -57 -29 -2 -16 24 -34 40
-46 40 -17 0 -20 -7 -20 -40 0 -22 -4 -40 -10 -40 -6 0 -10 40 -10 101 l0 102
50 -5 c27 -3 56 -11 65 -18z m265 0 c24 -24 25 -43 4 -61 -14 -11 -14 -13 0
-21 9 -5 16 -22 16 -38 0 -38 -32 -60 -87 -60 -41 0 -43 1 -45 33 -3 64 -3
152 0 160 2 4 23 7 48 7 31 0 50 -6 64 -20z m185 -67 c20 -49 39 -94 42 -100
3 -7 -2 -13 -10 -13 -8 0 -20 14 -27 30 -11 26 -18 30 -51 30 -32 0 -41 -5
-56 -30 -17 -29 -33 -39 -33 -21 0 9 65 164 76 182 12 20 24 5 59 -78z m202
61 c19 -26 16 -50 -8 -73 l-21 -20 21 -34 c25 -41 26 -48 6 -41 -8 3 -24 21
-36 40 -28 46 -59 46 -59 0 0 -19 -4 -38 -10 -41 -6 -4 -10 30 -10 96 l0 102
52 -5 c34 -4 56 -12 65 -24z m83 -44 c0 -57 4 -74 20 -90 50 -50 90 -9 90 92
0 39 4 68 10 68 6 0 10 -31 10 -74 0 -91 -18 -120 -73 -120 -61 0 -77 24 -77
116 0 45 4 78 10 78 6 0 10 -30 10 -70z m597 44 c31 -43 -2 -94 -62 -94 -34 0
-35 -1 -35 -40 0 -22 -4 -40 -10 -40 -6 0 -10 40 -10 101 l0 102 52 -5 c34 -4
56 -12 65 -24z m783 -57 c0 -86 -16 -117 -61 -117 -20 0 -29 5 -29 16 0 10 6
14 15 10 36 -13 45 4 45 83 0 43 3 81 6 84 16 16 24 -10 24 -76z m168 0 c38
-93 45 -117 34 -117 -5 0 -14 11 -20 24 -8 18 -20 25 -53 28 -38 3 -44 1 -58
-24 -17 -29 -31 -36 -31 -15 0 15 59 158 72 174 16 19 24 9 56 -70z m116 32
l23 -40 27 40 c26 37 56 60 56 43 0 -4 -16 -29 -35 -56 -27 -38 -35 -59 -35
-93 0 -56 -16 -56 -22 2 -4 29 -17 61 -41 94 -20 27 -33 51 -30 54 11 12 34
-7 57 -44z m-986 -51 c-2 -54 -7 -93 -13 -93 -6 0 -11 40 -13 93 -3 79 -1 92
13 92 13 0 15 -13 13 -92z m206 61 c55 -65 22 -141 -68 -154 -74 -11 -76 -8
-76 95 l0 90 59 0 c54 0 62 -3 85 -31z m104 -61 c-2 -54 -7 -93 -13 -93 -6 0
-11 39 -13 93 -2 78 0 92 13 92 13 0 15 -14 13 -92z m187 82 c-3 -5 -26 -10
-51 -10 -24 0 -44 -3 -44 -7 0 -5 -3 -18 -6 -30 -6 -21 -3 -23 40 -23 58 0 61
-18 4 -22 -40 -3 -43 -5 -46 -35 l-3 -33 50 0 c28 0 51 -3 51 -7 0 -5 -27 -8
-60 -9 l-60 0 0 93 0 93 66 0 c41 0 63 -4 59 -10z m743 -59 c17 -38 34 -81 38
-95 9 -36 -12 -33 -25 4 -9 27 -14 30 -55 30 -41 0 -47 -3 -62 -32 -25 -47
-28 -19 -5 38 42 105 52 124 65 124 7 0 27 -31 44 -69z m-1578 -44 c0 -9 -13
-11 -40 -9 -48 5 -45 18 5 20 22 1 35 -3 35 -11z"/>
<path d="M5008 6639 c-38 -21 -11 -74 34 -67 29 4 35 34 12 59 -20 22 -22 22
-46 8z"/>
<path d="M4425 4791 c49 -51 191 -154 265 -191 52 -26 60 -27 140 -21 90 8 90
10 -5 36 -98 27 -241 92 -344 156 l-96 61 40 -41z"/>
<path d="M5775 4784 c-101 -67 -214 -119 -345 -162 l-115 -37 90 -5 c105 -7
121 -1 255 91 76 53 203 158 190 158 -3 1 -36 -20 -75 -45z"/>
<path d="M4424 4725 c97 -143 121 -165 170 -165 94 0 94 8 -2 70 -49 31 -122
88 -162 126 l-74 69 68 -100z"/>
<path d="M5892 4814 c-4 -23 -104 -167 -147 -213 l-45 -48 73 -12 c39 -7 82
-14 94 -16 19 -4 23 0 28 37 5 38 3 281 -3 252z"/>
<path d="M5839 4784 c-39 -42 -140 -120 -217 -167 l-72 -44 38 -7 c77 -12 88
-9 137 47 43 47 151 197 142 197 -2 0 -14 -12 -28 -26z"/>
<path d="M4259 4773 c-6 -16 -21 -55 -34 -88 -13 -33 -37 -91 -54 -128 -17
-38 -31 -71 -31 -73 0 -4 22 0 92 17 l37 9 3 145 c2 80 2 145 0 145 -1 0 -7
-12 -13 -27z"/>
<path d="M4340 4662 c0 -78 3 -142 8 -142 16 0 166 31 170 35 3 2 -11 21 -29
42 -19 21 -56 72 -83 113 -27 41 -53 79 -58 85 -4 5 -8 -55 -8 -133z"/>
<path d="M4050 4631 c-85 -86 -180 -178 -210 -205 -30 -26 -50 -45 -45 -43 6
3 43 15 82 26 69 21 76 25 126 89 74 92 216 294 206 291 -2 0 -74 -71 -159
-158z"/>
<path d="M4167 4684 c-37 -56 -95 -134 -128 -174 -37 -43 -53 -70 -42 -66 10
3 39 10 65 17 l47 11 66 150 c36 83 65 153 63 157 -2 3 -34 -40 -71 -95z"/>
<path d="M5961 4695 c0 -55 4 -120 7 -144 l7 -44 59 -14 c33 -7 60 -12 62 -11
1 2 -22 59 -52 128 -91 208 -83 200 -83 85z"/>
<path d="M6001 4775 c0 -5 28 -75 62 -154 68 -157 65 -153 167 -176 l34 -7
-55 63 c-69 80 -137 169 -177 234 -18 28 -31 46 -31 40z"/>
<path d="M6039 4761 c15 -27 125 -175 192 -257 56 -69 62 -73 136 -97 43 -14
79 -24 81 -23 1 2 -33 32 -75 67 -43 35 -138 123 -211 196 -73 73 -128 124
-123 114z"/>
<path d="M2610 3665 l0 -185 74 0 c83 0 129 15 168 57 35 37 48 73 48 136 -1
116 -74 177 -212 177 l-78 0 0 -185z"/>
<path d="M4104 3784 c-9 -21 -29 -69 -44 -106 -17 -39 -25 -70 -19 -73 17 -11
171 7 165 19 -2 6 -21 52 -41 101 -20 50 -39 92 -41 94 -2 2 -11 -13 -20 -35z"/>
<path d="M5260 3665 l0 -185 63 0 c34 0 80 5 102 11 113 32 158 192 82 293
-38 49 -82 66 -171 66 l-76 0 0 -185z"/>
<path d="M3210 3166 c0 -15 7 -26 19 -29 25 -6 51 10 51 33 0 16 -7 20 -35 20
-30 0 -35 -3 -35 -24z"/>
<path d="M3210 3082 c0 -37 4 -41 43 -33 26 6 32 12 32 31 0 22 -5 25 -37 28
-36 3 -38 2 -38 -26z"/>
<path d="M3420 3146 c-17 -46 -7 -63 30 -51 17 5 18 9 8 33 -19 43 -27 47 -38
18z"/>
<path d="M3810 3115 l0 -75 34 0 c69 0 107 70 66 123 -17 21 -30 27 -61 27
l-39 0 0 -75z"/>
<path d="M4051 3139 c-6 -18 -11 -33 -11 -34 0 -2 9 -5 19 -8 33 -8 42 5 29
41 -15 40 -23 40 -37 1z"/>
<path d="M4220 3160 c0 -30 2 -31 38 -28 32 3 37 6 37 28 0 22 -5 25 -37 28
-36 3 -38 2 -38 -28z"/>
<path d="M4492 3163 c4 -37 51 -45 68 -13 15 28 5 40 -36 40 -33 0 -35 -2 -32
-27z"/>
<path d="M4490 3075 c0 -27 4 -35 18 -35 34 0 60 12 65 30 7 26 -11 40 -50 40
-31 0 -33 -2 -33 -35z"/>
<path d="M4701 3138 c-6 -17 -11 -33 -11 -34 0 -2 13 -4 29 -4 29 0 30 1 19
30 -14 42 -24 45 -37 8z"/>
<path d="M4870 3160 c0 -30 2 -31 38 -28 32 3 37 6 37 28 0 22 -5 25 -37 28
-36 3 -38 2 -38 -28z"/>
<path d="M5550 3154 c0 -34 1 -35 31 -32 63 6 67 68 4 68 -33 0 -35 -2 -35
-36z"/>
<path d="M6533 3135 c-10 -31 -9 -35 9 -41 31 -9 43 10 28 45 -16 40 -24 39
-37 -4z"/>
<path d="M5820 3115 l0 -75 29 0 c44 0 81 35 81 76 0 45 -29 74 -75 74 l-35 0
0 -75z"/>
<path d="M6910 3145 c-6 -15 -13 -32 -16 -36 -3 -5 9 -9 26 -9 30 0 32 2 25
28 -10 42 -23 49 -35 17z"/>
</g>
</svg>
